<?xml version="1.0" encoding="UTF-8"?>
<svg width="504.85" height="598.34" enable-background="new 0 0 504.847 598.338" viewBox="0 0 504.847 598.338" xmlns="http://www.w3.org/2000/svg">
 <path d="m312.46,352.83c2.273-2.067 3.776-4.826 4.545-7.831-5.674.098-10.464,3.309-16,4 .076.225.168.434.271.633 .047.096.104.186.157.275s.106.181.165.266c.085.122.174.239.268.352l.08.094c.225.257.482.479.752.688 .188.145.388.273.592.396 .068.043.138.086.208.127 1.659.928 3.771,1.296 5.499,1.68 1.3.29 2.46-.02 3.46-.68z" fill="#fff"/>
 <path d="m292.87,355.04c-.335-.122-.669-.246-1.007-.359l-.633-.205c-.695-.224-1.394-.438-2.096-.64l-.582-.166c-.849-.237-1.699-.465-2.557-.673-.693,1.088-1.693,1.422-3,1 .007.338.023.661.047.977 .109,1.412.404,2.729.895,3.89 2.521,5.69 9.679,4.733 16.004,2.801 3.082-1.12 1.895-1.849-.944-3.666-1.626-1.041-3.362-1.88-5.153-2.59-.33-.13-.65-.25-.98-.37z" fill="#fff"/>
 <path d="m308.48,373.62c.121-.161.235-.328.322-.521 3.515-7.846-2.449-5.574-7.371-3.996-.798.281-1.606.526-2.438.707-.354.084-.688.15-.995.191 .227,1.452 1.334,2.691 2.761,3.568 1.507.736 3.372,1.003 4.982,1.188 1.02.11 1.98-.36 2.74-1.14z" fill="#fff"/>
 <path d="m212,406c.313,2.1-1.062,2.693-2.683,3.317-2.16.83-1.32,2.71-1.32,4.68 2.387.379 1.026,4.369 4,4-1.01-4.12 5.96-10.07 0-12z" fill="#010101"/>
 <path d="m273.02,412.85c.994-4.661-2.652-.181-3.607.158-2.998,1.062-3.465-3.45-6.406-3.007-3.97,5.22 8.53,9.83 10.02,2.85z" fill="#010101"/>
 <path d="m269,419c-1.217,1.979-1.7,4.509-3.494,6.105-2.38,2.116-3.846-1.271-6.506-1.105 .218,4.407 3.039,8.879 7.349,5.348 2.539-2.08.84-3.367 3.754-4.994 1.769-.988 2.658-2.857 3.897-4.354-2.03.33-2.84-1.64-5-1.01z" fill="#010101"/>
 <path d="m279,419c-4.905,4.7 5.903,8.459 7,2-3.09.76-3.91-2.76-7-2z" fill="#010101"/>
 <path d="m165.91,429.11c-4.607.289-1.718,2.159-1.911,4.888 2.595-.801 5.522.016 8-1 .07-3.06-3.68-4.04-6.09-3.89z" fill="#010101"/>
 <path d="m273,432c-1.12.011-2.12-.322-3-1-1.967.69.332,4.712-2,5-1.423-.197-5.951-.262-5.007,2.406 2.214,6.253 6.65.215 10.007,3.594 1.77-3.4-2.33-6.31 0-10z" fill="#010101"/>
 <path d="m154.84,458.52c-1.715,1.18-4.211-1.16-5.844-1.516-.748,3.167 3.128,3.58 2,7 1.195.388 8.882-4.14 9-5-3.51-.02-1.16-3.24-5.16-.48z" fill="#010101"/>
 <path d="m369,483c-3.711-.251-4.141,4.51-8,2 .624,3.122-.914,4.863-4,5 .794-4.398-3.045-4.217-6-3-.258-3.388.91-6.377 4-8-1.189,2.958-.896,5.52 3,5-1.904-1.895 9.107-10.561 1-11-.986,7.224-6.764,1.749-9.745,4.255-1.871,1.571-.588,5.471.745,7.745-2.105,1.098-3.389,2.431-3,5 3.546.474 5.361-3.84 5,2 3.236-.405 11.402,7.638 11.906,2.906 .169-1.58-.557-5.298 1.593-5.907 3.621-1.026 1.229,3.55 1.501,5.001 6.18-1.59 1.13-7.31 2-11z" fill="#010101"/>
 <path d="m208.72,483.32c-.696,1.873-3.163.378-3.277-1.051-.195-2.434-.002-3.771-2.799-4.416-2.968-.687-.435-2.346-.647-3.858h-5c-.68,2.097.292,2.607 1.899,3.436 2.654,1.364-.671,2.087-.753,3.817-.24,5.048 5.158,5.073 2.697,10.59-3.016,6.758 5.444,6.424 6.372.487 .636-4.076.065-3.342 2.421-6.494 1.25-1.673 1.518-3.811 1.364-5.836-3.75-.32-1.53,1.34-2.27,3.32z" fill="#010101"/>
 <path d="m305.06,494.55c2.9-.76 1.94-1.88 1.94-4.55-3.08-2.271-8.87-.414-8,4 1.58,1.59 4.19,1.04 6.06.55z" fill="#010101"/>
 <path d="m318.01 495.99c2.86 3.938 6.808 3.904 5.994-1.993-1.96-1.99-8.56-1.54-5.99 1.99z" fill="#010101"/>
 <path d="m283.35,506.1c-1.164,4.633 5.521,2.424 7.646.895-3.021.618-3.644-1.591-4-4 4.371-.042 6,3.325 6-3-4.69-.51-8.45,1.37-9.65,6.1z" fill="#010101"/>
 <path d="m305,500c-.11,1.496-.501,3.265-2,4-1.789-2.688-3.437-4.56-7-4-1.668,1.536-.332,4.464-2,6 2.634-.139 5.705,2.31 8,0-.065,1.514.603,2.514 2,3 1.1-3.14 6.55-6.93 1-9z" fill="#010101"/>
 <path d="m343,508c4.443.443 7.441-.559 7-5-3.72-1.94-7.01.43-7,5z" fill="#010101"/>
 <path d="m412,514c5.146.812 6.116-2.551 6-7-4.25.09-6.31,2.36-6,7z" fill="#010101"/>
 <path d="m387,508c-.584,2.406-4.074,8.223 1,8 3.05-2.03 4.59-9.13-1-8z" fill="#010101"/>
 <path d="m404,513c-5.816,3.229-4.145,11.948 3,10 7.78-2.12.91-10.94-3-10z" fill="#010101"/>
 <path d="m413,533c-1.577-1.822-4.005-3.961-6.649-3.476-1.441.361-2.56,1.188-3.351,2.476h-5c-.377,1.556.377,1.963 1.403,2.797 3.441,2.795-3.305,2.203-4.403,2.203 .094,1.821-.589,3.341-2.233,4.195-2.989,1.552-8.86,3.2-7.767-2.195-5.154.279-14.569-.734-14,7 5.026-.705 8.599-9.225 12.377-1.252 2.773,5.852 4.27,8.652 11.452,6.581 1.319-.38 2.652-.541 3.879-.853 1.78-1.229 3.542-2.483 5.284-3.764l16.01-14.72c-2.58-.4-4.36,1.61-7,1z" fill="#fff"/>
 <path d="m355,352c-1.736.429-6.042,1.593-6,4 4.146-1.346 11.062-.095 14-4-1.215-.188-4.64-.434-7.798-.042-.06.02-.13.02-.2.04z" fill="#fff"/>
 <path d="m401.81,168.68c.804-2.059 1.46-3.754 1.797-4.655 1.973-5.274 3.896-10.605 6.729-15.491 2.564-4.423 3.401-9.182 5.663-13.534 4.841-9.319 10.854-18.594 16-28 2.258-4.128 4.338-8.3 6.647-12.408 1.222-2.177 2.373-4.398 3.448-6.651 1.067-2.231 2-1.426 2.902-2.94 2.375-3.988 5.032-8.694 7.019-12.965 1.577-3.392 5.892-7.068 6.484-10.598 .278-1.653 3.602-6.762 4.989-7.43 2.532-1.217 4.931-6.572 6.508-9.007 5.986-9.239 11.94-19.463 19.048-27.85 2.34-2.766 15.12-17.151 5.95-17.151-3.273,2.622-5.86,5.736-8.251,8.989-3.662,4.983-6.858,10.293-11.325,14.679-2.746,2.697-4.88,6.054-7.646,8.612-3.346,3.094-4.201,7.158-7.272,10.37-3.088,3.23-6.355,6.331-9.539,9.472-1.149,1.135-2.948.857-3.965,1.877-.919.919-.878,2.16-1.976,3.076-8.043,6.708-14.863,15.698-22.26,23.159-5.152,5.2-10.362,10.336-15.592,15.453-2.86,2.799-5.72,5.6-8.596,8.386-1.397,1.354-2.509,3.191-3.641,4.944-1.163,1.805-2.349,3.519-3.889,4.523-.255.166-.49.33-.714.492-2.245,1.627-3.062,3.096-4.454,4.853-.514.649-1.105,1.339-1.879,2.09l-.534.539c-3.896,3.843-7.456,7.928-11.02,12.005-3.072,3.515-6.164,7.012-9.486,10.335-.239.24-.47.487-.712.725-.564.554-1.072,1.123-1.56,1.694-28.02-11.808-58.784-18.342-91.048-18.342-129.69,0-235.2,105.51-235.2,235.2 0,46.467 13.548,89.827 36.896,126.35-2.681-.281-5.187-.714-5.781-.802-5.931-.87-12.622-3.111-18.632-2.743-4.824.296-8.747-2.213-13.663-2.656-5.644-.513-11.439-.482-16.973-1.828-5.295-1.27-10.872-3.59-16.287-1.43 .877,9.733 10.29,13.468 18,17 11.045,5.06 22.605,9.005 34.264,12.388 10.25,2.979 20.261,4.461 30.351,7.307 3.441.971 7.314,1.562 11.106,2.37 43.12,48.594 106,79.273 175.92,79.273 129.69,0 235.2-105.51 235.2-235.2 .01-80.73-40.88-152.08-103.03-194.46zm-38.81,183.32c-2.938,3.905-9.854,2.654-14,4-.042-2.407 4.264-3.571 6-4 .067-.018.135-.025.202-.042 3.16-.39 6.58-.15 7.8.04zm-320.94,11.14c0-125.49 102.1-227.59 227.59-227.59 30.438,0 59.491,6.021 86.055,16.911-.66.666-1.35,1.23-2.118,1.618-.195.099-.395.188-.602.265 .178.341-5.727,6.323-5.729,6.633-.018,1.626-2.192,2.88-2.983,4.274-2.093,3.684-4.568,6.953-9.266,6.751 1.436,2.029-2.732,9.096-4.535,10.599-1.791,1.493-3.975,2.556-5.465,4.401-1.174,1.453-.863,3.533-2,5-6.534,8.435-13.466,16.142-19.843,24.757-7.445,10.059-14.489,20.361-21.454,30.753-1.374,2.049-3.372,3.509-4.703,5.49-1.021,1.517-1.021,3.464-2,5-2.285,3.586-4.635,7.353-7,11-2.037,3.143-5.386,5.509-7.077,8.919-2.423,4.885-5.25,9.334-7.923,14.081-3.186,5.657-7.338,15.94-14.973,15.392-3.375-.242-7.285-2.062-10.614-.707-3.507,1.43-3.222,5.981-.957,8.36 2.705,2.841 4.558,3.675 1.65,7.517-2.362,3.119-5.858,5.041-8.666,7.696-2.507,2.371-2.272,4.742-5.94,4.742-1.66,0-3.29-.507-3.549,1.522-.427,3.349-.796,3.844-2.476,6.279-.785,1.139-2.305.497-3.388.655-1.821.267-1.785,3.379-2.532,4.742-2.218,4.051-6.08,6.901-9.555,9.799-6.605,5.503-12.372,13.876-18.083,20.709-2.528,3.024-5.277,6.535-7.917,9.291-2.842,2.967-4.783,8.133-8.527,9.992-2.642,1.312-.991,3.031-2.473,5.008-1.663,2.217-3.437,4.348-5.268,6.426-3.829,4.347-7.898,8.47-11.896,12.656-6.567,6.878-14.126,14.54-19.069,22.639-2.546,4.171-6.867,7.921-8.802,12.259-2.11,4.728-4.455,8.185-8.384,11.615-3.642,3.181-7.52,6.125-9.181,10.823-1.06,2.999-5.677,7.435-4.401,10.582l-7.75-.813c-24.111-36.1-38.19-79.45-38.19-126.03zm246.94,70.86c-1.861.131-6.294-2.627-4.465,2.021 .957,2.433-3.893,4.776-5.535,7.25-2.607,3.925-4.229,3.797-8,5.729-3.695,1.891-7.479,3.696-10.577,6.36-2.534,2.179-5.296,5.313-8.385,6.584-3.628,1.489-7.591,2.118-11.038,4.056-2.406,1.354-3.742,4.641-7,4 1.143,7.094-8.925,14.339-13,19-1.119,1.28-.057,2.842-2.017,3.497-.9.224-1.448.806-1.642,1.745-1.44,3.537-3.674,3.434-6.341,5.758-3.429,2.99-3.835,4.681-9.145,4.345-3.345-.211-6.335-1.559-9.502-2.497-3.685-1.092-6.473.331-7.686-3.922-.722-2.529.96-3.681 3.333-3.926-2.936,2.818 2.789,6.916 2.768,3.102-.014-2.804-.904-3.34 1.973-4.359 2.95-1.047 6.548-9.905 1.26-9.74 1.485-4.059 4.29-12.669 1.309-16.451-3.306-4.193-2.387,2.998-2.184,3.962 .757,3.603-6.35,2.898-8.268,2.41-2.681-.683-11.063-2.061-11.677-4.602-1.096-4.53-7.364-2.104-4.798.632 1.87,1.993 2.488,1.984 3.765,4.4 1.352,2.558-1.223,5.707-2.147,8.646-1.399-1.044-2.074-2.719-4-3-2.646,1.607-4.618,3.814-4.999,7.001-2.284-.099-5.304-4.742-7.203-2.403-1.481,1.823-2.779,1.666-5.131.987-.914-.263-7.828-4.374-6.401-.861 .514,1.266 1.052,3.696-1.122,4.034-.945.147-6.169-2.098-3.891,1.849 .761,1.315 2.974-.539 4.039-.294-.083-.02 6.55,8.877 6.709,9.688 3.389-.461 1.782-4.221 5.642-3.441 2.294.465 5.374-.057 7.358,1.441-2.842,2.983-8.159-.184-10,4-5.182-.613-10.346-1.359-15.504-2.144-10.313-1.568-20.612-3.265-30.997-4.299-5.768-.572-7.685-.024-7.51-6.299 .093-3.358 3.957-4.974 6.574-7.195 1.897-1.611 8.063-3.538 7.484-5.861-1.139-4.569-.575-4.442 3.019-8.135 6.607-6.792 12.226-14.445 18.319-21.684 2.441-2.898 5.67-8.386 9.614-8.386 4.072,0 8.31-3.155 11.966-4.903 4.55-2.176 9.118-4.313 13.667-6.494 2.915-1.396 6.896-4.43 10.326-4.007 4.666.574 1.727-.359 2.265-2.763 .307-1.376 8.308-4.734 9.776-5.833 5.645-4.228 14.292-7.046 21-10 3.695-1.628 7.599-2.758 11-5 1.885-.47 3.84,4.583 4.939-.062 1.286-5.432 9.997-5.192 14.844-7.797 2.59-1.392 7.538-2.027 9.33-4.22 1.353-1.653 5.981-1.401 8.283-2.706 4.692-2.664 14.47-7.423 19.715-4.023 2.565,1.664 4.44,4.195 7.146,5.676 2.64,1.441 3.122.371 4.742,3.132 .245,1.858 1.276,2.626 3.099,2.303 3.147,1.031 6.709,2.413 7.204,5.192 .562,3.135 2.192,6.768.255,9.76-2.932,4.522-1.408,19.14-10.558,18.745 3.01,3.69-1.41,6.47-1.98,10zm-85,93c-1.758,2.574-3.807,3.673-7,3-2.507.345 1.013,3.903-2.635,3.135-1.363-.287-1.786-1.401-3.365-1.135 .048-5.453 7.417-2.414 7.206-5.581-.193-2.903-4.675-2.021-4.206-5.419 6.991-.122 12.661,4.934 18.711,8.066 2.371,1.228 1.653,2.317 4.929,2.071 3.532-.265 5.812-2.887 7.412,1.271 3.186,8.275-5.846,1.932-6.052,5.589-4.463-1.778-3.759-7.464-10-6v-3.999c-1.03-.39-5.17,1.13-5-1zm-38,7c-1.79-.765-2.216,1.349-3.474,1.84-1.912.745 2.491-3.893 2.474-3.84 3.589-.404 4.614,2.072 7,4-.088-.017 6.958-1.188 4.902.902-.797.811-4.487-1.12-3.902,1.098 .251,4.044 5.4,3.064 7,6-6.227,4.7-7.175-8.043-13-4 .1-1.78.42-4.55-1-6zm-50-9c2.125-.486 7.801,1.554 8.999-1.001 4.767-.229 3.256,6.087 9.808,5.008 3.17-.521 3.323-3.248 6.459-3.272 2.251-.02 3.933.999 5.538,2.462 2.787,2.54 8.954-.929 9.093-.692 .947,1.606-.458,3.781.103,5.497 .74,2.271 3.822,2.34 4,5 3.244-1.697 2.461,1.05 5,2-2.195,4.396-9.493.969-10-3-2.933,1.351-5.205,2.53-7-1-2.234-.555-1.241,1.899-3,2-2.536-.316-4.971-1.205-7.359-2.064-3.86-1.41-21.78-5.14-21.64-10.95zm93.47-164.32c-2.871-1.595.253-2.673 1.667-4.549 1.663-2.206.129-2.424 2.741-4.148 1.729-1.14 3.135-2.676 4.416-4.283 2.129-2.672 4.016-5.646 6.868-7.631 4.249-2.959 11.967-19.955 18.794-14.354 3.212,2.634 10.799,5.378 10.877,9.289 .052,2.581 1.528,4.29 3.716,5.451 2.281,1.212 5.25,2.013 6.45,4.55-1.828,4.36-5.851,5.06-9.912,6.274-8.694,2.604-17.313,7.3-25.854,10.552-2.241.853-4.382,1.979-6.702,2.591-2.209.584-1.117,1.956-2.532,2.583-3.098,1.374-6.334,2.062-9.379,3.629-3.683,1.896-7.531,4.461-11.621,5.371-.245.055-7.011.354-6.62.604-.758-.48 12.373-12.846 12.62-13.604 1.545-.108 2.426,1.188 4,1 .26-1.02 1.98-2.48.45-3.32zm88.01-24.84c-6.035,2.124-12.004,4.795-18.484,5.161 0-6.332-3.332-3.151-8-6-1.328-2.379-2.641-4.784-4.284-6.966-2.327-3.092-2.792-.902-5.604-2.619-1.539-.939-2.563-2.497-4.109-3.415-2.123-1.262-3.59-.379-5.491-2.382-3.688-3.885-4.384-10.046 2.564-9.376 10.983,1.06 21.385,4.463 31.762,8.026 3.638,1.25 18.981,3.906 19.165,8.729 3.768-.446 5.725,1.922 8.999,3.001-4.12,4.11-11.29,4-16.52,5.84zm1.52,22.16c2.839,1.816 4.026,2.546.944,3.666-.305.109-.637.225-1.027.344-2.534.777-5.184,1.467-7.855,1.459-3.696-.01-5.967-1.861-7.121-4.604-.488-1.161-.783-2.479-.894-3.889-.022-.315-.04-.64-.047-.978 1.306.422 2.306.088 3-1 .856.208 1.708.437 2.558.673l.582.166c.701.202 1.398.416 2.094.639l.408.125c.075.024.149.055.226.08 .338.114.672.238 1.007.36s.65.239.973.367c1.79.71 3.52,1.55 5.15,2.59zm-103.95,31.78c3.555-1.582 6.475-4.291 10.121-5.698 2.179-.841 4.495-1.169 6.825-1.084 .936-2.061 2.885-3.245 4.85-4.15 1.647-.759 4.076-2.429 6.009-1.959 1.347.327 1.78,1.807 3.141,2.109 2.081-5.991 8.821-7.721 14.174-9.554 4.412-1.509 5.185-1.279 8.826,1.554 2.135.166.612-3.973 1-5 3.658-1.02 15.246-7.96 18.358-5.26 1.799,1.561 2.192,4.394 2.668,6.572 .904,4.146.854,3.739-3.07,5.644-5.462,2.649-12.264,1.705-16.562,5.938-3.735,3.681-12.042,1.549-15.521,6.162-1.893,2.512-8.115,1.392-10.008,3.991-1.445,1.986-4.727,1.818-6.924,2.345-2.186.521-3.281,2.954-5.446,2.598-2.552-.422-2.443,2.35-5.01,1.975-2.838-.415-6.078,2.592-8.409,3.891-2.393,1.332-5.914,3.09-8.652,1.661-1.294-.674-2.785-2.204-4.424-1.517 .368-2.746 2.249-4.624 3.359-7.04 1.28-2.79 1.91-1.94 4.68-3.17zm105.71-16.21c-1.427-.877-2.535-2.116-2.761-3.568 .308-.041.642-.107.995-.191 .742-.176 1.574-.432 2.438-.707 4.922-1.578 10.887-3.85 7.373,3.996-.088.193-.203.36-.324.521-1.44,1.91-5.12,1.55-7.73-.05zm8.23-20.06c-1.729-.384-3.839-.752-5.499-1.68l-.208-.127c-.204-.123-.403-.253-.591-.396-.271-.209-.528-.432-.752-.688l-.08-.094c-.094-.111-.184-.229-.269-.352-.059-.085-.11-.176-.165-.266-.054-.092-.109-.18-.158-.275-.102-.199-.192-.408-.27-.633 5.536-.691 10.326-3.902 16-4-.68,2.658-2.18,6.262-4.545,7.831-.98.67-2.14.98-3.45.69zm.33-34.41c-1.909-3.623-5.65-2.808-9.317-3.096-.416-2.04-2.774-2.273-4.308-3.025-.89-.375-1.455-1.035-1.692-1.975-1.711.096-3.41-.005-5.097-.303-2.834-.508-5.457-1.641-8.12-2.68-3.238-1.266-8.49-.92-10.146-3.987-.174-.319-3.469-6.583-4.464-3.855-1.702,4.67-2.667,1.782-7.175,1.825 1.368-5.057 7.366-5.835 7.854-10.145 .312-2.751 3.293-3.44 4.146-5.855 4.21.271 8.1,1.723 12.104,2.896 5.229,1.529 6.029,2.009 8.896,3.104 2.157,1.565 4.66,2.581 7.127,3.54 4.727,1.838 10.377,3.615 12.873,8.46 1.763-2.791 11.954,4.729 14,6 4.268,2.654 13.169,5.734 9.705,11.721-2.763,4.774-8.806,4.149-13.329,2.793-2.56-.77-11.95-3.32-13.05-5.41zm14.27,127.78c.969-2.955 2.392-1.878 5.408-1.878 1.293-1.14 2.534-2.362 3.448-3.838 1.054-1.703 1.568-3.645 1.646-5.637 .138-3.478 1.021-3.17 3.062-5.866 2.835-3.736 4.684-8.158 7.842-11.659 5.727,2.851.617,23.729-3.351,27.049-7.05,5.91-11.3,12.72-21.65,11.96-.24-4.08 2.41-6.52 3.59-10.12zm-53.94,143.84c-52.786,0-101.43-18.065-140.08-48.336 5.734,1.958 11.561,4.028 10.432,3.615 18.038,6.606 37.653,12.33 56.097,14.126 18.874,1.837 37.236,6.288 56.003,8.462 4.38.508 24.669,2.337 25.085,6.429 .246,2.428 13.229,4.354 16.334,4.243 6.33-.225 7.049,6.33 14.152,2.213 4.754-2.756 13.212,7.104 16.328.528l3.951,1.136c-18.6,4.94-38.15,7.58-58.29,7.58zm129.06-40.24c-1.227.312-2.56.473-3.879.853-7.184,2.071-8.679-.729-11.452-6.581-3.778-7.973-7.351.547-12.377,1.252-.569-7.734 8.846-6.721 14-7-1.095,5.396 4.776,3.747 7.767,2.195 1.646-.854 2.327-2.374 2.233-4.195 1.1,0 7.846.592 4.403-2.203-1.026-.834-1.78-1.241-1.403-2.797h5c.791-1.288 1.908-2.113 3.351-2.476 2.646-.485 5.072,1.652 6.649,3.476 2.644.612 4.417-1.399 6.999-.999l-16.007,14.713c-1.74,1.28-3.5,2.54-5.28,3.77zm25.27-20.25 2.379-2.736c-5.077,2.33-16.198-1.887-21.364-1.489-2.835.218-12.756-3.45-11.563-4.875 4.736-5.654-3.004-.928-5.271-.954-4.674-.055-11.128-2.254-13.684-6.251-3.238-5.071-4.951,1.773-8.148-.478-2.005-1.412-2.537,1.342-3.839,2.262-1.844,1.303-2.603-1.177-5.063,1.523-4.272,4.69-5.883,1.744-6.493-3.163-.983-7.899-8.97,2.651-10.444-2.306-.954-3.201-.772-7.676-5.489-6.761 2.197-6.185-4.428-8.991-3.699-4.02 .484,3.307-4.196,6.028-7.301,7.02 .152-2.567-2.583-8.085-4.35-3.106-.816,2.298 1.164,4.825.941,7.19-.295,3.163-3.193,3.72-4.408.82-.893-2.139-.62-4.562-1.469-6.712-1.331-3.382-4.276-1.754-6.479-.188-3.12,2.22-1.306,6.966-3.826,7.741-4.058,1.248-3.968,2.697-2.785,6.627 .767,2.542-3.261,3.988-5.627,3.628 .483-3.949-3.994-4.215.021-7.378 4.324-3.406-3.209-4.989-5.021-5.622-3.159,1.519-1.465,6.881-5,8 1.456,4.085 4.173-.658 7,0-2.789,2.569.89,6.101-3.834,5.2-2.541-.484-4.95,1.109-7.479.598-4.793-.973 1.232-6.269 1.41-8.589 .293-3.806-5.976-12.295-9.996-10.606-3.438,1.442-6.92,10.344-1.102,9.397-2.037,3.063-7.283,2.488-10.141,4.626-1.668,1.248-4.424,4.582-6.859,3.374 2.039-4.329 1.984-9.782-2-13-3.844.926-.876,5.556-1,8-2.305.205-4.923-3.47-7.14-1.567-1.557,1.336-.444,4.447-2.456,5.4-3.874,1.835-1.659-5.643-1.405-6.833 5.61.3 6-.723 6-6-2.292-.363-10.215-12.659-9.466-3.62 .818,9.868-12.22,5.726-18.534,4.62 5.572-5.575 13.292-8.189 19.893-12.25 3.503-2.155 6.592-4.177 7.654-8.203 .95-3.601 2.759-7.153 6.453-8.547 2.558,2.683-1.646,6.806-2.185,9.482-.692,3.439-3.452,5.953-3.815,9.518-8.408-7.343-.33,8.369-1,1 2.486.168 2.093,3.428 2,5 1.46.127 2.127-.54 2-2 5.571,2.104 8.392,7.622 13.114,10.886 6.871,4.748 1.119-5.392.886-6.886-2.317,1.301-7.153-.585-5.451-3.595 1.56-2.76 5.521-3.142 6.451-6.405 2.966,1.735.683,3.895.503,6.263-.165,2.18 3.143,2.199 3.491.224 .264-1.492-1.128-3.366-.129-4.742 1.219-1.678 1.476-4.021-1.865-3.742 1.365-3.081 3.108-2.396 6-2-5.028-3.913 1.108-11.201 1-16 3.951-4.636 11.813-1.342 17-3 5.345-1.71 11.89-2.412 16.957-4.854 3.331-1.606 6.027-6.521 10.044-7.146 0,6.489 2.782.804 4.654-1.146 1.863-1.944 6.713-1.391 9.297-2.771 5.271-2.814 8.131-8.314 12.64-12.027 5.132-4.226 6.537-17.35 6.708-23.809 .087-3.319 2.979-6.214-.092-8.456-3.133-2.288.749-2.588.522-5.031-.363-3.922 2.985-3.73 4.271-6.762 .76-1.794-.403-3.531.655-5.42 .634-1.012 1.2-2.062 1.7-3.146 3.037-7.383-3.475-14.812-10.355-16.436-.595-3.688.804-6.256 4-8 .885-3.765-2.592-5.049 2.18-6.572 3.768-1.201 4.242,1.469 7.485-1.763 1.719-1.711 7.089-1.437 9.473-2.127 10.316-2.995 3.074-8.991-2.726-13.283-6.803-5.032-4.84-15.681-3.925-23.495 .48-4.121 2.167-7.062 1.446-10.684-.633-3.186 1.274-8.071 1.5-11.375 .546-8.004.227-17.605 4.564-24.701-2.668-3.922 1.039-9.037 1.562-13.127 .455-3.555-.586-11.505 2.428-13.929 2.691-2.168 1.227-6.901 2.011-9.944 .635-2.456 2.104-1.076 2.374-4.558 .07-1.681.146-3.362.229-5.043 .295-3.389 2.869-5.758 3.491-9.464 .71-4.235 2.11-8.132 3.234-12.253 1.082-3.965 3.464-6.643 4.406-10.361 .963-3.803 1.729-7.69 3.266-11.32 0,0 1.911-4.832 3.957-10.035 59.332,41.118 98.272,109.68 98.272,187.17 .03,65.99-28.2,125.49-73.22,167.1z" fill="#010101"/>
</svg>
